<svg xmlns="http://www.w3.org/2000/svg" version="1.1" style="display: block;" viewBox="0 0 2048 2048" width="783" height="783" preserveAspectRatio="none">
<path transform="translate(0,0)" fill="#132235" d="M 246.208 58.9054 C 256.884 54.4376 267.249 54.794 278.648 54.8939 C 317.634 55.2355 356.682 54.5269 395.652 55.2649 C 403.898 55.4304 415.552 58.2446 422.152 63.0953 C 437.491 77.4221 452.105 92.4517 467.166 107.072 C 503.477 141.812 539.397 176.958 574.92 212.502 L 774.842 407.869 C 809.194 441.327 842.681 475.329 877.561 508.296 L 897.282 506.482 C 902.967 505.372 947.319 502.447 952.888 502.629 C 963.015 501.557 984.497 501.863 995.496 501.597 C 1056.05 500.342 1116.63 502.42 1176.96 507.823 C 1184.3 501.976 1199.84 485.302 1207.6 477.77 C 1231.21 454.843 1254.31 430.983 1277.93 408.051 L 1546.2 144.246 C 1560.11 130.429 1623.64 63.5731 1636.65 58.2833 C 1648.77 53.5499 1671.35 54.8276 1684.98 54.9035 C 1720.05 55.0985 1755.31 54.3081 1790.33 55.5617 C 1796.51 55.8039 1800.92 57.87 1806.24 60.6769 C 1823.18 74.1679 1824.56 86.0874 1826.86 106.333 C 1827.97 116.033 1829.02 125.74 1829.99 135.454 C 1832.89 153.867 1835.09 175.043 1837.39 193.668 L 1857.85 363.878 C 1860.92 389.345 1863.33 416.848 1867.08 441.919 C 1869 461.083 1871.83 480.048 1873.76 499.211 C 1875.29 507.9 1876 516.525 1877.13 525.248 C 1882.99 570.466 1887.25 616.125 1893.58 661.267 C 1895.66 681.022 1900.41 709.229 1901.33 728.27 C 1904.42 746.057 1906.15 767.272 1908.14 785.47 C 1911.72 806.644 1912.83 830.52 1916.64 851.171 C 1918.75 868.777 1920.86 887.122 1922.6 904.766 C 1925.75 930.272 1929.63 958.342 1931.79 983.768 C 1935.71 1005.43 1938.75 1040.32 1941.48 1063.12 C 1946.57 1101.09 1950.37 1140.46 1954.91 1178.69 C 1963.36 1177.86 1971.81 1177.12 1980.27 1176.47 C 1990.67 1174.49 2015.17 1172.49 2025.17 1175.86 C 2031.38 1177.42 2035.88 1180.88 2039.27 1186.35 C 2042.94 1192.26 2043.47 1199.91 2041.78 1206.54 C 2040.39 1212.03 2037.06 1217.71 2031.88 1220.37 C 2019.59 1226.67 1930.73 1235.91 1910.09 1238.96 C 1891.24 1241.75 1872.42 1246.13 1853.53 1248.31 C 1861.12 1286.76 1866.1 1325.67 1868.42 1364.78 C 1868.98 1370.79 1869.44 1375.9 1869.6 1381.95 C 1883.74 1381.24 1895.31 1383.27 1909.03 1383.92 C 1939.6 1384.42 1975.13 1390.55 2005.76 1393.08 C 2022.04 1395.66 2028.85 1394.12 2039 1407.58 C 2050.77 1423.19 2033.88 1450.12 2019.87 1448.04 C 1973.83 1441.2 1914.13 1442.16 1869.41 1433.6 L 1867.22 1452.05 C 1863.72 1487.44 1837.77 1578.34 1818.65 1608.26 C 1816.38 1616.47 1802.13 1640.08 1797.32 1647.87 C 1652.52 1882.3 1354.26 1975.64 1093.8 1985.97 C 1069.27 1988.74 1040.79 1988.13 1015.82 1988.04 C 991.652 1987.96 964.185 1988.5 940.323 1986.48 C 817.801 1978.8 702.883 1959.61 588.075 1914.51 C 473.411 1869.46 366.935 1801.24 290.522 1703.43 C 266.561 1672.76 245.994 1641.8 230.337 1605.96 C 224.16 1595.36 217.64 1578.34 212.98 1566.83 C 210.815 1560.97 208.698 1555.1 206.63 1549.2 C 200.817 1532.6 196.483 1515.89 192.268 1498.84 C 186.947 1476.81 184.553 1456.62 180.607 1434.46 C 135.839 1437.66 90.7295 1442.64 46.0969 1447.37 C 35.0382 1448.55 24.0877 1449.48 15.0716 1441.73 C 9.72251 1437.16 6.5294 1430.55 6.26451 1423.52 C 5.15622 1399.08 24.4295 1395.09 43.5821 1393.1 C 88.8457 1388.4 135.211 1382.59 180.746 1381.69 C 180.708 1364.18 184.519 1333.75 186.626 1315.71 C 188.964 1295.7 192.093 1269.27 196.251 1250.05 C 183.129 1245.93 164.611 1243.33 150.637 1241.02 C 123.706 1236.7 96.7106 1232.79 69.6607 1229.29 C 58.6077 1227.95 17.3877 1225.8 12.9527 1216.97 C -16.6837 1157.99 68.5836 1175.75 96.9043 1179.77 C 98.585 1157.18 101.907 1132.79 104.591 1110.32 L 116.39 1010.41 L 124.84 935.791 C 126.442 921.497 128.121 903.387 130.647 889.563 C 131.934 862.079 138.936 815.541 142.362 786.878 C 150.978 723.463 157.932 655.842 165.427 591.977 L 200.353 299.004 L 218.743 145.853 C 221.092 126.857 222.857 107.767 225.425 88.7941 C 227.358 74.5138 234.309 66.428 246.208 58.9054 z"/>
<path transform="translate(0,0)" fill="#132235" d="M 246.208 58.9054 C 256.884 54.4376 267.249 54.794 278.648 54.8939 C 317.634 55.2355 356.682 54.5269 395.652 55.2649 C 403.898 55.4304 415.552 58.2446 422.152 63.0953 C 418.959 64.1767 395.966 60.1278 389.905 59.9338 C 371.151 59.3338 254.116 62.3919 246.208 58.9054 z"/>
<path transform="translate(0,0)" fill="#132235" d="M 1636.65 58.2833 C 1648.77 53.5499 1671.35 54.8276 1684.98 54.9035 C 1720.05 55.0985 1755.31 54.3081 1790.33 55.5617 C 1796.51 55.8039 1800.92 57.87 1806.24 60.6769 L 1803.48 61.7451 C 1788.48 59.2287 1765.89 59.9808 1750.2 59.9837 L 1671.38 60.0364 C 1664.82 60.0429 1640.45 61.1664 1636.65 58.2833 z"/>
<path transform="translate(0,0)" fill="#132235" d="M 1818.65 1608.26 L 1816.91 1606.7 C 1817.7 1601.24 1832.79 1568.47 1836.2 1558.74 C 1844.72 1534.41 1851.48 1510.93 1857.56 1485.74 C 1859.28 1478.65 1863.17 1446.52 1865.74 1443.51 C 1867.5 1446.18 1867.13 1448.75 1867.22 1452.05 C 1863.72 1487.44 1837.77 1578.34 1818.65 1608.26 z"/>
<path transform="translate(0,0)" fill="#132235" d="M 940.323 1986.48 C 942.512 1985.96 942.403 1986.27 944.064 1984.77 C 951.107 1983.32 969.305 1983.75 977.179 1983.78 L 1030.71 1984.01 C 1039.79 1984.04 1091.78 1982.36 1095.45 1984.03 C 1094.39 1985.63 1094.99 1985.03 1093.8 1985.97 C 1069.27 1988.74 1040.79 1988.13 1015.82 1988.04 C 991.652 1987.96 964.185 1988.5 940.323 1986.48 z"/>
<path transform="translate(0,0)" fill="#132235" d="M 130.647 889.563 C 131.934 862.079 138.936 815.541 142.362 786.878 C 143.643 789.008 145.077 791.647 144.961 794.209 C 143.88 817.898 139.585 841.487 137.15 865.093 C 136.411 872.253 135.8 884.475 130.647 889.563 z"/>
<path transform="translate(0,0)" fill="#132235" d="M 1941.48 1063.12 C 1941.11 1065.59 1941.16 1067.34 1939.58 1069.22 C 1937.09 1065.41 1928.51 992.043 1929.76 984.722 L 1931.79 983.768 C 1935.71 1005.43 1938.75 1040.32 1941.48 1063.12 z"/>
<path transform="translate(0,0)" fill="#132235" d="M 897.282 506.482 C 902.967 505.372 947.319 502.447 952.888 502.629 C 964.891 502.982 975.787 502.257 987.629 504.475 C 961.061 508.78 933.311 506.285 906.386 508.406 C 900.775 508.848 900.429 506.592 897.282 506.482 z"/>
<path transform="translate(0,0)" fill="#132235" d="M 1908.14 785.47 C 1911.72 806.644 1912.83 830.52 1916.64 851.171 C 1915.71 853.171 1913.62 856.41 1913.27 857.8 C 1911.03 850.374 1905.27 798.992 1906.83 791.75 L 1908.14 785.47 z"/>
<path transform="translate(0,0)" fill="#132235" d="M 1893.58 661.267 C 1895.66 681.022 1900.41 709.229 1901.33 728.27 L 1899.22 727.555 C 1897.17 723.652 1896.06 717.387 1895.65 712.881 C 1894.21 696.801 1891.14 680.17 1891.5 664.059 C 1892.2 663.128 1892.89 662.198 1893.58 661.267 z"/>
<path transform="translate(0,0)" fill="#132235" d="M 1837.39 193.668 C 1836.85 194.193 1835.84 194.765 1835.16 195.202 C 1831.38 190.475 1828.44 150.616 1827.3 141.973 C 1826.81 138.289 1827.99 137.394 1829.99 135.454 C 1832.89 153.867 1835.09 175.043 1837.39 193.668 z"/>
<path transform="translate(0,0)" fill="#132235" d="M 1868.42 1364.78 C 1868.98 1370.79 1869.44 1375.9 1869.6 1381.95 C 1883.74 1381.24 1895.31 1383.27 1909.03 1383.92 L 1910.71 1385.99 C 1906.16 1389.27 1876.57 1385.9 1869.38 1384.99 C 1864.64 1380.95 1864.54 1369.54 1868.42 1364.78 z"/>
<path transform="translate(0,0)" fill="#132235" d="M 1867.08 441.919 C 1869 461.083 1871.83 480.048 1873.76 499.211 C 1872.68 499.864 1873.42 499.517 1871.37 499.792 C 1870.52 498.404 1869.89 497.385 1869.67 495.372 C 1867.87 479.329 1864.07 461.36 1864.75 445.36 C 1865.7 443.956 1866.47 442.809 1867.08 441.919 z"/>
<path transform="translate(0,0)" fill="#132235" d="M 192.268 1498.84 L 193.767 1496.36 C 197.34 1498.91 209.285 1541.51 207.448 1548.19 C 207.176 1548.53 206.903 1548.87 206.63 1549.2 C 200.817 1532.6 196.483 1515.89 192.268 1498.84 z"/>
<path transform="translate(0,0)" fill="#132235" d="M 1916.64 851.171 C 1918.75 868.777 1920.86 887.122 1922.6 904.766 C 1921.64 907.5 1922.45 906.959 1920.69 907.973 C 1917.92 904.313 1914.33 865.726 1913.27 857.8 C 1913.62 856.41 1915.71 853.171 1916.64 851.171 z"/>
<path transform="translate(0,0)" fill="#132235" d="M 1980.27 1176.47 C 1990.67 1174.49 2015.17 1172.49 2025.17 1175.86 L 2024.21 1178.12 C 2014.87 1179.14 1988.98 1180.49 1981.22 1176.66 C 1980.91 1176.6 1980.59 1176.53 1980.27 1176.47 z"/>
<path transform="translate(0,0)" fill="#132235" d="M 212.98 1566.83 L 214.594 1564.76 C 219.96 1570.13 228.749 1593.9 231.315 1602.04 C 231.691 1603.24 230.824 1604.87 230.337 1605.96 C 224.16 1595.36 217.64 1578.34 212.98 1566.83 z"/>
<path transform="translate(0,0)" fill="rgb(176,175,176)" d="M 469.131 587.498 C 525.166 642.259 580.338 697.894 634.628 754.384 L 693.526 815.35 C 710.705 832.958 736.285 864.08 761.933 866.005 C 774.831 866.973 792.964 853.75 795.498 840.744 C 806.368 837.623 844.509 832.126 855.902 830.63 C 956.069 818.294 1057.28 816.858 1157.76 826.347 C 1189.31 829.229 1225.97 836.585 1255.17 838.65 C 1254.35 853.848 1273.12 864.879 1286.64 865.789 C 1303.62 866.933 1316.66 855.679 1328.46 845.026 C 1342.54 831.765 1356.32 816.739 1369.79 802.696 L 1427.34 742.894 C 1445.35 723.841 1464.12 705.557 1482.31 686.665 C 1514.22 653.534 1546.03 620.048 1579.29 588.25 C 1584.88 614.124 1589.33 640.824 1594.35 666.895 L 1629.48 850.519 L 1640.75 909.648 C 1642.15 917.058 1646.48 943.703 1649.53 948.951 C 1680.98 1003.11 1713.06 1057.64 1743.39 1112.49 C 1760.35 1143.15 1768.33 1180.06 1781.47 1212.02 C 1743.39 1219.46 1705.09 1232.55 1667.86 1243.7 C 1658.01 1246.65 1647.82 1250.28 1638.06 1253.68 C 1624.36 1258.46 1610.03 1262.82 1597 1269.16 C 1579.18 1278.36 1577.5 1303.18 1595.43 1313.31 C 1604.13 1318.23 1614.36 1317.27 1623.42 1313.93 C 1679.17 1293.4 1735.2 1277 1792.52 1261.36 C 1800.48 1305.98 1804.11 1334.05 1806.97 1379.18 C 1750.57 1375.42 1691.72 1375.13 1635.31 1376.77 C 1606.22 1377.61 1603.1 1425.22 1631.58 1428.31 C 1649.45 1430.25 1671.62 1429.14 1689.86 1429.13 C 1728.69 1428.9 1767.52 1429.21 1806.35 1430.07 C 1801.24 1462.93 1796.91 1490.88 1787.06 1523 C 1756.26 1623.44 1687.42 1709.2 1603.04 1770.66 C 1392.06 1924.31 1080.06 1955.16 828.943 1918.12 C 647.664 1891.39 439.246 1808.82 329.644 1655.74 C 279.487 1585.69 253.273 1515.45 242.784 1430.16 C 302.184 1428.01 363.78 1430.12 423.227 1428.83 C 441.965 1428.43 452.161 1399.22 436.077 1383.97 C 432.407 1380.44 427.811 1378.03 422.824 1377.02 C 411.597 1374.77 390.527 1376.16 378.599 1375.79 C 333.858 1374.39 285.027 1379.53 240.803 1378.53 C 244.473 1334.93 248.57 1303.82 256.726 1260.96 C 294.298 1271.47 331.59 1282.94 368.564 1295.39 C 389.97 1302.5 411.419 1310.99 433.338 1316.52 C 445.173 1319.51 458.17 1311.82 461.814 1299.58 C 470.988 1268.77 427.89 1260.68 404.803 1252.38 C 362.147 1237.06 315.061 1222.24 270.092 1212.64 C 277.484 1186.29 287.054 1159.42 296.801 1133.79 C 303.555 1116.03 315.314 1097.37 324.904 1080.7 L 365.177 1010.73 C 375.881 992.115 389.558 970.781 399.456 951.973 C 402.906 945.419 406.775 919.281 408.436 910.34 L 420.176 848.314 L 469.131 587.498 z"/>
<path transform="translate(0,0)" fill="#132235" d="M 1006.68 1226.44 C 1036.99 1225.34 1110.14 1227.04 1132.59 1245.95 C 1163.68 1272.15 1139.83 1324.89 1107.36 1340.14 C 1078.76 1353.59 1053.66 1361.71 1057.75 1398.07 C 1064.9 1461.6 1117.35 1498.19 1179.77 1490.95 C 1220.19 1485.97 1254.62 1459.19 1269.37 1421.22 C 1274.48 1408.25 1277.66 1392.14 1286.17 1381.09 C 1295.56 1369.01 1310.9 1369.93 1321.19 1380.25 C 1336.74 1395.85 1330.9 1418.14 1324.07 1436.06 C 1316.18 1457.19 1303.14 1473.28 1287.63 1489.22 C 1222.87 1555.78 1098.32 1555.71 1033.42 1489.31 C 1030.24 1485.98 1026.47 1481.1 1023.47 1477.46 C 990.323 1515.39 960.122 1532.17 908.718 1539.55 C 823.383 1551.79 734.316 1496.82 718.506 1409.9 C 715.69 1394.42 726.038 1374.14 743.525 1373.34 C 771.544 1372.06 773.73 1407.44 783.799 1427.56 C 791.148 1442.57 801.561 1455.87 814.365 1466.61 C 837.41 1485.73 867.083 1494.97 896.911 1492.3 C 956.055 1486.6 996.452 1440.21 991.03 1380.72 C 988.511 1353.1 948.022 1348.21 928.59 1331.99 C 905.711 1312.89 891.832 1273.06 914.127 1248.84 C 931.064 1230.45 982.443 1227.81 1006.68 1226.44 z"/>
<path transform="translate(0,0)" fill="#132235" d="M 685.568 1071.4 C 693.028 1070.48 707.061 1070.99 714.479 1071.81 C 754.493 1076.38 791.046 1096.68 816.072 1128.23 C 829.971 1145.7 849.076 1182.14 846.022 1204.4 C 845.258 1210.36 842.037 1215.73 837.139 1219.22 C 832.247 1222.71 826.959 1224.07 821.011 1224.17 C 799.033 1224.54 793.333 1202.61 783.741 1187.4 C 766.994 1160.92 740.443 1142.16 709.895 1135.2 C 668.069 1129.48 630.783 1147.32 609.635 1184.19 C 601.811 1197.82 596.411 1220.87 578.649 1223.99 C 566.456 1225.92 548.956 1216.23 548.722 1202.5 C 548.283 1176.78 564.505 1146.62 580.141 1127.33 C 606.65 1094.63 643.925 1075.22 685.568 1071.4 z"/>
<path transform="translate(0,0)" fill="#132235" d="M 1344.04 1070.43 C 1415.58 1068.59 1494.06 1124.87 1497.99 1202.3 C 1498.69 1216.02 1482.97 1224.84 1469.48 1222.76 C 1444.31 1218.86 1445.37 1190.05 1430.24 1174.18 C 1409.51 1149.33 1390.48 1138.49 1358.31 1134.1 C 1316.29 1133.15 1288.78 1146.37 1265.81 1183.23 C 1260.37 1192.68 1256.49 1201.99 1250.21 1211.01 C 1236.08 1231.28 1202.2 1222.92 1202.39 1197.23 C 1202.58 1169.05 1219.53 1137.82 1238.32 1117.41 C 1265.84 1087.54 1303.96 1072.33 1344.04 1070.43 z"/>
<path transform="translate(0,0)" fill="rgb(62,150,217)" d="M 287.415 128.046 C 307.852 126.695 376.965 124.178 391.975 131.039 C 403.006 136.08 475.214 209.977 489.005 223.522 C 572.808 306.136 657.046 388.307 741.714 470.032 C 776.212 502.984 820.751 549.728 857.877 577.881 C 869.864 578.148 896.74 575.495 909.623 574.633 C 933.304 573.254 957.006 572.264 980.72 571.666 C 1052.34 569.621 1124.01 571.743 1195.38 578.019 C 1214.92 564.768 1243.54 536.65 1260.46 519.685 L 1309.95 470.397 L 1534.67 250.581 C 1563.06 222.003 1591.83 193.804 1620.97 165.99 C 1631.08 156.237 1648.52 138.011 1659.01 129.951 C 1686.95 125.723 1734.2 126.805 1762.74 127.042 C 1767.96 164.595 1772.17 204.048 1776.79 241.846 L 1803.3 460.314 L 1891.4 1188.27 C 1873.91 1190.73 1854.58 1194.08 1837.61 1198.77 C 1834.14 1188.22 1830.7 1177.63 1827.09 1167.12 C 1808.63 1113.29 1781.94 1062.6 1755.08 1012.56 C 1745.75 995.098 1736.31 977.695 1726.76 960.352 C 1720.31 948.766 1709.24 931.21 1705.37 919.316 C 1703.18 912.587 1700.07 894.905 1698.52 887.268 C 1694.73 868.638 1690.82 850.033 1686.78 831.456 L 1643.61 625.209 L 1632.78 572.587 C 1630.52 561.61 1628.64 550.509 1625.1 539.786 C 1618.11 518.653 1596.46 503.358 1574.48 512.88 C 1569.61 514.986 1562.75 520.609 1558.91 524.432 C 1537.96 545.245 1517.43 566.517 1496.82 587.668 C 1466.17 619.091 1435.32 650.318 1404.27 681.346 L 1314.55 771.437 C 1298.79 787.188 1282.67 802.972 1267.16 818.961 C 1260.77 825.555 1258.16 830.21 1255.17 838.65 C 1225.97 836.585 1189.31 829.229 1157.76 826.347 C 1057.28 816.858 956.069 818.294 855.902 830.63 C 844.509 832.126 806.368 837.623 795.498 840.744 C 792.303 834.679 789.177 827.398 784.299 822.411 C 770.6 808.409 756.466 794.37 742.647 780.522 L 657.788 695.163 L 543.608 579.034 C 521.789 556.958 497.372 528.151 471.357 512.328 C 457.16 503.693 430.913 517.914 426.084 531.65 C 414.635 564.212 409.54 602.147 402.737 636.436 L 363.181 836.132 L 352.834 889.252 C 345.554 927.461 344.746 926.699 325.169 960.118 C 315.274 977.076 305.625 994.177 296.226 1011.42 C 279.928 1041.25 262.742 1073.11 248.074 1103.65 C 233.668 1133.64 222.296 1167.4 211.04 1198.71 C 196.818 1194.92 174.586 1191.13 160.152 1189.62 C 172.626 1101.89 181.709 1009.85 192.195 921.586 L 256.065 385.301 L 277.044 209.611 C 280.319 183.063 283.311 154.324 287.415 128.046 z"/>
</svg>
